<svg width="30" height="30" viewBox="0 0 30 30" fill="none" xmlns="http://www.w3.org/2000/svg">
<path d="M13.5 26.2125L6 21.9C5.525 21.625 5.15625 21.2625 4.89375 20.8125C4.63125 20.3625 4.5 19.8625 4.5 19.3125V10.6875C4.5 10.1375 4.63125 9.6375 4.89375 9.1875C5.15625 8.7375 5.525 8.375 6 8.1L13.5 3.7875C13.975 3.5125 14.475 3.375 15 3.375C15.525 3.375 16.025 3.5125 16.5 3.7875L24 8.1C24.475 8.375 24.8438 8.7375 25.1063 9.1875C25.3688 9.6375 25.5 10.1375 25.5 10.6875V19.3125C25.5 19.8625 25.3688 20.3625 25.1063 20.8125C24.8438 21.2625 24.475 21.625 24 21.9L16.5 26.2125C16.025 26.4875 15.525 26.625 15 26.625C14.475 26.625 13.975 26.4875 13.5 26.2125ZM13.5 22.7625V15.8625L7.5 12.375V19.3125L13.5 22.7625ZM16.5 22.7625L22.5 19.3125V12.375L16.5 15.8625V22.7625ZM0 7.5V3C0 2.175 0.29375 1.46875 0.88125 0.88125C1.46875 0.29375 2.175 0 3 0H7.5V3H3V7.5H0ZM7.5 30H3C2.175 30 1.46875 29.7062 0.88125 29.1187C0.29375 28.5312 0 27.825 0 27V22.5H3V27H7.5V30ZM22.5 30V27H27V22.5H30V27C30 27.825 29.7062 28.5312 29.1187 29.1187C28.5312 29.7062 27.825 30 27 30H22.5ZM27 7.5V3H22.5V0H27C27.825 0 28.5312 0.29375 29.1187 0.88125C29.7062 1.46875 30 2.175 30 3V7.5H27ZM15 13.275L20.925 9.7875L15 6.375L9.075 9.7875L15 13.275Z" fill="#0C0819"/>
</svg>
