<svg width="211" height="45" viewBox="0 0 211 45" fill="none" xmlns="http://www.w3.org/2000/svg">
<g clip-path="url(#clip0_361_1046)">
<path d="M58.9509 0.350586H66.803C72.6649 0.350586 76.9955 4.19572 76.9955 9.87083C76.9955 15.5459 72.6649 19.4178 66.8563 19.4178H58.9492V0.350586H58.9509ZM63.7652 4.49098V15.2757H66.7779C70.0058 15.2757 72.076 13.3656 72.076 9.84414C72.076 6.32263 69.9792 4.49265 66.7779 4.49265H63.7652V4.49098Z" fill="white"/>
<path d="M79.1481 9.86857C79.1481 4.24851 83.7473 0.0263672 89.5292 0.0263672C92.9439 0.0263672 95.7948 1.31753 97.5164 3.41442L94.2885 6.64233C92.9973 5.10928 91.5193 4.33025 89.4741 4.33025C86.3813 4.33025 84.0142 6.53557 84.0142 9.84355C84.0142 13.1515 86.1928 15.4369 89.339 15.4369C91.7061 15.4369 93.2926 14.3609 93.9381 12.4526L88.8019 12.3174V8.39057H99.0744V9.11622C99.0744 15.9741 95.1209 19.7124 89.3123 19.7124C83.5037 19.7124 79.1465 15.4636 79.1465 9.87024L79.1481 9.86857Z" fill="white"/>
<path d="M102.035 0.350586H105.505L111.986 10.1661L118.467 0.350586H121.936V19.4178H117.177V9.68233L113.547 15.1156H110.428L106.824 9.65564V19.4178H102.037V0.350586H102.035Z" fill="white"/>
<path d="M131.993 0.350586H136.645L143.96 19.4178H138.931L137.801 16.0831H130.701L129.519 19.4178H124.598L131.993 0.350586ZM136.485 12.263L134.28 5.88891L132.021 12.263H136.485Z" fill="white"/>
<path d="M149.046 4.49098H143.211V0.350586H159.696V4.49265H153.861V19.4178H149.046V4.49098Z" fill="white"/>
<path d="M162.547 0.350586H167.361V19.4178H162.547V0.350586Z" fill="white"/>
<path d="M170.451 9.8422C170.451 4.22214 174.808 0 180.644 0C186.479 0 190.836 4.22214 190.836 9.86889C190.836 15.5156 186.479 19.7661 180.697 19.7661C174.915 19.7661 170.451 15.4639 170.451 9.8422ZM185.915 9.8422C185.915 6.48084 183.818 4.27552 180.644 4.27552C177.469 4.27552 175.372 6.48084 175.372 9.8422C175.372 13.2036 177.442 15.4623 180.644 15.4623C183.845 15.4623 185.915 13.2569 185.915 9.8422Z" fill="white"/>
<path d="M193.932 0.350586H197.293L205.846 11.1887V0.350586H210.66V19.4178H207.083L198.746 8.84824V19.4178H193.932V0.350586Z" fill="white"/>
<path d="M60.2841 40.0898C61.3968 41.3292 63.2184 42.4919 65.5955 42.4919C68.6049 42.4919 69.5658 40.8738 69.5658 39.5826C69.5658 37.5591 67.5173 37.002 65.2903 36.3948C62.5845 35.6858 59.5734 34.9284 59.5734 31.6138C59.5734 28.8313 62.0523 26.9346 65.3653 26.9346C67.946 26.9346 69.9428 27.7953 71.3607 29.2867L70.0963 30.8297C68.8318 29.4385 67.0602 28.8063 65.2152 28.8063C63.1917 28.8063 61.7504 29.8939 61.7504 31.487C61.7504 33.1819 63.6988 33.6873 65.8474 34.2695C68.6049 35.0035 71.7411 35.8626 71.7411 39.4041C71.7411 41.858 70.0712 44.3619 65.5188 44.3619C62.5845 44.3619 60.4342 43.2493 59.043 41.6812L60.2824 40.0881L60.2841 40.0898Z" fill="white"/>
<path d="M87.0709 44.0597V29.0611H81.7344V27.1895H94.5326V29.0611H89.1711V44.0597H87.0709Z" fill="white"/>
<path d="M105.484 27.1895H107.585V37.4587C107.585 40.5448 109.254 42.4916 112.366 42.4916C115.477 42.4916 117.147 40.5448 117.147 37.4587V27.1895H119.247V37.4837C119.247 41.6825 116.945 44.3633 112.367 44.3633C107.79 44.3633 105.488 41.6575 105.488 37.5088V27.1895H105.484Z" fill="white"/>
<path d="M131.359 44.0597V27.1895H137.126C142.363 27.1895 145.777 30.8561 145.777 35.6371C145.777 40.418 142.363 44.0597 137.126 44.0597H131.359ZM133.46 42.188H137.128C141.225 42.188 143.604 39.2537 143.604 35.6371C143.604 32.0205 141.302 29.0611 137.128 29.0611H133.46V42.188Z" fill="white"/>
<path d="M157.236 44.0597V27.1895H159.337V44.0597H157.236Z" fill="white"/>
<path d="M179.142 26.9111C184.125 26.9111 187.515 30.6545 187.515 35.6373C187.515 40.6202 184.125 44.3635 179.142 44.3635C174.159 44.3635 170.77 40.6202 170.77 35.6373C170.77 30.6545 174.134 26.9111 179.142 26.9111ZM179.142 28.7828C175.349 28.7828 172.945 31.6921 172.945 35.6373C172.945 39.5826 175.347 42.4918 179.142 42.4918C182.937 42.4918 185.339 39.5575 185.339 35.6373C185.339 31.7171 182.91 28.7828 179.142 28.7828Z" fill="white"/>
<path d="M199.198 40.0898C200.311 41.3292 202.132 42.4919 204.51 42.4919C207.519 42.4919 208.48 40.8738 208.48 39.5826C208.48 37.5591 206.431 37.002 204.204 36.3948C201.499 35.6858 198.487 34.9284 198.487 31.6138C198.487 28.8313 200.966 26.9346 204.279 26.9346C206.86 26.9346 208.859 27.7953 210.275 29.2867L209.01 30.8297C207.746 29.4385 205.974 28.8063 204.129 28.8063C202.106 28.8063 200.664 29.8939 200.664 31.487C200.664 33.1819 202.613 33.6873 204.761 34.2695C207.519 35.0035 210.655 35.8626 210.655 39.4041C210.655 41.858 208.985 44.3619 204.433 44.3619C201.499 44.3619 199.348 43.2493 197.957 41.6812L199.196 40.0881L199.198 40.0898Z" fill="white"/>
<path d="M25.3061 36.6313C23.9532 36.6313 7.75032 36.6397 7.75032 36.6397V7.75032H22.195C26.5606 7.75032 30.4808 9.69707 33.1315 12.7698H42.2931C38.7482 5.22471 31.0813 0 22.195 0H0V44.39C0 44.39 24.1801 44.39 25.3061 44.39V36.633V36.6313Z" fill="#6A00FF"/>
<path d="M20.0879 20.5264V28.2733H33.0646V44.3895H42.2829V20.5264H20.0879Z" fill="#6A00FF"/>
</g>
<defs>
<clipPath id="clip0_361_1046">
<rect width="210.658" height="44.39" fill="white"/>
</clipPath>
</defs>
</svg>
