<svg width="30" height="24" viewBox="0 0 30 24" fill="none" xmlns="http://www.w3.org/2000/svg">
<path d="M11.25 10.5L9.825 13.575L6.75 15L9.825 16.425L11.25 19.5L12.675 16.425L15.75 15L12.675 13.575L11.25 10.5ZM20.25 10.5L19.275 12.525L17.25 13.5L19.275 14.475L20.25 16.5L21.225 14.475L23.25 13.5L21.225 12.525L20.25 10.5ZM3 0L6 6H10.5L7.5 0H10.5L13.5 6H18L15 0H18L21 6H25.5L22.5 0H27C27.825 0 28.5312 0.29375 29.1187 0.88125C29.7062 1.46875 30 2.175 30 3V21C30 21.825 29.7062 22.5312 29.1187 23.1187C28.5312 23.7062 27.825 24 27 24H3C2.175 24 1.46875 23.7062 0.88125 23.1187C0.29375 22.5312 0 21.825 0 21V3C0 2.175 0.29375 1.46875 0.88125 0.88125C1.46875 0.29375 2.175 0 3 0ZM3 9V21H27V9H3ZM3 9V21V9Z" fill="#0C0819"/>
</svg>
